<mxfile host="Electron" modified="2024-03-08T12:55:38.865Z" agent="Mozilla/5.0 (X11; Linux x86_64) AppleWebKit/537.36 (KHTML, like Gecko) draw.io/23.1.5 Chrome/120.0.6099.109 Electron/28.1.0 Safari/537.36" etag="ceoOYRBF6UMGaO7AEFoF" version="23.1.5" type="device">
  <diagram name="Page-1" id="OdBLbiPZlDxiJY5oYws5">
    <mxGraphModel dx="830" dy="463" grid="1" gridSize="10" guides="1" tooltips="1" connect="1" arrows="1" fold="1" page="1" pageScale="1" pageWidth="1654" pageHeight="1169" math="0" shadow="0">
      <root>
        <mxCell id="0" />
        <mxCell id="1" parent="0" />
        <mxCell id="CRj4OYLTbuhGIO_4ob-R-8" value="" style="verticalLabelPosition=bottom;shadow=0;dashed=0;align=center;html=1;verticalAlign=top;shape=mxgraph.electrical.logic_gates.logic_gate;operation=and;aspect=fixed;" vertex="1" parent="1">
          <mxGeometry x="794" y="390" width="66.67" height="40" as="geometry" />
        </mxCell>
        <mxCell id="CRj4OYLTbuhGIO_4ob-R-9" value="&lt;font style=&quot;font-size: 20px;&quot;&gt;out := in1.zip(in2).map(&amp;nbsp; _&amp;amp; _&amp;nbsp; ) .reduceOr&amp;nbsp;&lt;/font&gt;" style="text;html=1;align=center;verticalAlign=middle;whiteSpace=wrap;rounded=0;" vertex="1" parent="1">
          <mxGeometry x="600" y="350" width="390" height="30" as="geometry" />
        </mxCell>
        <mxCell id="CRj4OYLTbuhGIO_4ob-R-14" value="" style="group" vertex="1" connectable="0" parent="1">
          <mxGeometry x="570" y="400" width="230" height="200" as="geometry" />
        </mxCell>
        <mxCell id="CRj4OYLTbuhGIO_4ob-R-1" value="" style="endArrow=none;html=1;rounded=0;strokeWidth=2;" edge="1" parent="CRj4OYLTbuhGIO_4ob-R-14">
          <mxGeometry width="50" height="50" relative="1" as="geometry">
            <mxPoint y="100" as="sourcePoint" />
            <mxPoint x="80" y="100" as="targetPoint" />
          </mxGeometry>
        </mxCell>
        <mxCell id="CRj4OYLTbuhGIO_4ob-R-2" value="" style="endArrow=none;html=1;rounded=0;strokeWidth=2;" edge="1" parent="CRj4OYLTbuhGIO_4ob-R-14">
          <mxGeometry width="50" height="50" relative="1" as="geometry">
            <mxPoint x="80" y="200" as="sourcePoint" />
            <mxPoint x="80" as="targetPoint" />
          </mxGeometry>
        </mxCell>
        <mxCell id="CRj4OYLTbuhGIO_4ob-R-3" value="" style="endArrow=none;html=1;rounded=0;strokeWidth=1;entryX=0;entryY=0.25;entryDx=0;entryDy=0;entryPerimeter=0;" edge="1" parent="CRj4OYLTbuhGIO_4ob-R-14" target="CRj4OYLTbuhGIO_4ob-R-8">
          <mxGeometry width="50" height="50" relative="1" as="geometry">
            <mxPoint x="80" as="sourcePoint" />
            <mxPoint x="180" as="targetPoint" />
          </mxGeometry>
        </mxCell>
        <mxCell id="CRj4OYLTbuhGIO_4ob-R-4" value="" style="endArrow=none;html=1;rounded=0;strokeWidth=1;" edge="1" parent="CRj4OYLTbuhGIO_4ob-R-14">
          <mxGeometry width="50" height="50" relative="1" as="geometry">
            <mxPoint x="80" y="60" as="sourcePoint" />
            <mxPoint x="180" y="60" as="targetPoint" />
          </mxGeometry>
        </mxCell>
        <mxCell id="CRj4OYLTbuhGIO_4ob-R-5" value="" style="endArrow=none;html=1;rounded=0;strokeWidth=1;" edge="1" parent="CRj4OYLTbuhGIO_4ob-R-14">
          <mxGeometry width="50" height="50" relative="1" as="geometry">
            <mxPoint x="80" y="140" as="sourcePoint" />
            <mxPoint x="180" y="140" as="targetPoint" />
          </mxGeometry>
        </mxCell>
        <mxCell id="CRj4OYLTbuhGIO_4ob-R-6" value="" style="endArrow=none;html=1;rounded=0;strokeWidth=1;" edge="1" parent="CRj4OYLTbuhGIO_4ob-R-14">
          <mxGeometry width="50" height="50" relative="1" as="geometry">
            <mxPoint x="80" y="200" as="sourcePoint" />
            <mxPoint x="180" y="200" as="targetPoint" />
          </mxGeometry>
        </mxCell>
        <mxCell id="CRj4OYLTbuhGIO_4ob-R-11" value="" style="endArrow=none;html=1;rounded=0;strokeWidth=1;entryX=0;entryY=0.25;entryDx=0;entryDy=0;entryPerimeter=0;" edge="1" parent="CRj4OYLTbuhGIO_4ob-R-14">
          <mxGeometry width="50" height="50" relative="1" as="geometry">
            <mxPoint x="80" y="60" as="sourcePoint" />
            <mxPoint x="230" y="60" as="targetPoint" />
          </mxGeometry>
        </mxCell>
        <mxCell id="CRj4OYLTbuhGIO_4ob-R-12" value="" style="endArrow=none;html=1;rounded=0;strokeWidth=1;entryX=0;entryY=0.25;entryDx=0;entryDy=0;entryPerimeter=0;" edge="1" parent="CRj4OYLTbuhGIO_4ob-R-14">
          <mxGeometry width="50" height="50" relative="1" as="geometry">
            <mxPoint x="80" y="140" as="sourcePoint" />
            <mxPoint x="230" y="140" as="targetPoint" />
          </mxGeometry>
        </mxCell>
        <mxCell id="CRj4OYLTbuhGIO_4ob-R-13" value="" style="endArrow=none;html=1;rounded=0;strokeWidth=1;entryX=0;entryY=0.25;entryDx=0;entryDy=0;entryPerimeter=0;" edge="1" parent="CRj4OYLTbuhGIO_4ob-R-14">
          <mxGeometry width="50" height="50" relative="1" as="geometry">
            <mxPoint x="80" y="200" as="sourcePoint" />
            <mxPoint x="230" y="200" as="targetPoint" />
          </mxGeometry>
        </mxCell>
        <mxCell id="CRj4OYLTbuhGIO_4ob-R-44" value="" style="group" vertex="1" connectable="0" parent="CRj4OYLTbuhGIO_4ob-R-14">
          <mxGeometry x="20" y="100" width="20" height="34" as="geometry" />
        </mxCell>
        <mxCell id="CRj4OYLTbuhGIO_4ob-R-45" value="" style="endArrow=none;html=1;rounded=0;strokeWidth=3;" edge="1" parent="CRj4OYLTbuhGIO_4ob-R-44">
          <mxGeometry width="50" height="50" relative="1" as="geometry">
            <mxPoint y="34" as="sourcePoint" />
            <mxPoint x="20" y="14" as="targetPoint" />
          </mxGeometry>
        </mxCell>
        <mxCell id="CRj4OYLTbuhGIO_4ob-R-46" value="4" style="text;html=1;align=center;verticalAlign=middle;whiteSpace=wrap;rounded=0;" vertex="1" parent="CRj4OYLTbuhGIO_4ob-R-14">
          <mxGeometry x="30" y="134" height="10" as="geometry" />
        </mxCell>
        <mxCell id="CRj4OYLTbuhGIO_4ob-R-55" value="" style="ellipse;whiteSpace=wrap;html=1;aspect=fixed;fillColor=#000000;" vertex="1" parent="CRj4OYLTbuhGIO_4ob-R-14">
          <mxGeometry x="87" y="117.5" width="5" height="5" as="geometry" />
        </mxCell>
        <mxCell id="CRj4OYLTbuhGIO_4ob-R-54" value="" style="ellipse;whiteSpace=wrap;html=1;aspect=fixed;fillColor=#000000;" vertex="1" parent="CRj4OYLTbuhGIO_4ob-R-14">
          <mxGeometry x="77" y="97" width="5" height="5" as="geometry" />
        </mxCell>
        <mxCell id="CRj4OYLTbuhGIO_4ob-R-16" value="" style="endArrow=none;html=1;rounded=0;strokeWidth=2;" edge="1" parent="1">
          <mxGeometry width="50" height="50" relative="1" as="geometry">
            <mxPoint x="570" y="520" as="sourcePoint" />
            <mxPoint x="660" y="520" as="targetPoint" />
          </mxGeometry>
        </mxCell>
        <mxCell id="CRj4OYLTbuhGIO_4ob-R-17" value="" style="endArrow=none;html=1;rounded=0;strokeWidth=2;" edge="1" parent="1">
          <mxGeometry width="50" height="50" relative="1" as="geometry">
            <mxPoint x="660" y="620" as="sourcePoint" />
            <mxPoint x="660" y="420" as="targetPoint" />
          </mxGeometry>
        </mxCell>
        <mxCell id="CRj4OYLTbuhGIO_4ob-R-18" value="" style="endArrow=none;html=1;rounded=0;strokeWidth=1;" edge="1" parent="1">
          <mxGeometry width="50" height="50" relative="1" as="geometry">
            <mxPoint x="660" y="420" as="sourcePoint" />
            <mxPoint x="800" y="420" as="targetPoint" />
          </mxGeometry>
        </mxCell>
        <mxCell id="CRj4OYLTbuhGIO_4ob-R-19" value="" style="endArrow=none;html=1;rounded=0;strokeWidth=1;" edge="1" parent="1">
          <mxGeometry width="50" height="50" relative="1" as="geometry">
            <mxPoint x="660" y="480" as="sourcePoint" />
            <mxPoint x="760" y="480" as="targetPoint" />
          </mxGeometry>
        </mxCell>
        <mxCell id="CRj4OYLTbuhGIO_4ob-R-20" value="" style="endArrow=none;html=1;rounded=0;strokeWidth=1;" edge="1" parent="1">
          <mxGeometry width="50" height="50" relative="1" as="geometry">
            <mxPoint x="660" y="560" as="sourcePoint" />
            <mxPoint x="760" y="560" as="targetPoint" />
          </mxGeometry>
        </mxCell>
        <mxCell id="CRj4OYLTbuhGIO_4ob-R-21" value="" style="endArrow=none;html=1;rounded=0;strokeWidth=1;" edge="1" parent="1">
          <mxGeometry width="50" height="50" relative="1" as="geometry">
            <mxPoint x="660" y="620" as="sourcePoint" />
            <mxPoint x="760" y="620" as="targetPoint" />
          </mxGeometry>
        </mxCell>
        <mxCell id="CRj4OYLTbuhGIO_4ob-R-22" value="" style="endArrow=none;html=1;rounded=0;strokeWidth=1;entryX=0;entryY=0.25;entryDx=0;entryDy=0;entryPerimeter=0;" edge="1" parent="1">
          <mxGeometry width="50" height="50" relative="1" as="geometry">
            <mxPoint x="660" y="480" as="sourcePoint" />
            <mxPoint x="810" y="480" as="targetPoint" />
          </mxGeometry>
        </mxCell>
        <mxCell id="CRj4OYLTbuhGIO_4ob-R-23" value="" style="endArrow=none;html=1;rounded=0;strokeWidth=1;entryX=0;entryY=0.25;entryDx=0;entryDy=0;entryPerimeter=0;" edge="1" parent="1">
          <mxGeometry width="50" height="50" relative="1" as="geometry">
            <mxPoint x="660" y="560" as="sourcePoint" />
            <mxPoint x="810" y="560" as="targetPoint" />
          </mxGeometry>
        </mxCell>
        <mxCell id="CRj4OYLTbuhGIO_4ob-R-24" value="" style="endArrow=none;html=1;rounded=0;strokeWidth=1;entryX=0;entryY=0.25;entryDx=0;entryDy=0;entryPerimeter=0;" edge="1" parent="1">
          <mxGeometry width="50" height="50" relative="1" as="geometry">
            <mxPoint x="660" y="620" as="sourcePoint" />
            <mxPoint x="810" y="620" as="targetPoint" />
          </mxGeometry>
        </mxCell>
        <mxCell id="CRj4OYLTbuhGIO_4ob-R-25" value="" style="verticalLabelPosition=bottom;shadow=0;dashed=0;align=center;html=1;verticalAlign=top;shape=mxgraph.electrical.logic_gates.logic_gate;operation=and;aspect=fixed;" vertex="1" parent="1">
          <mxGeometry x="794" y="450" width="66.67" height="40" as="geometry" />
        </mxCell>
        <mxCell id="CRj4OYLTbuhGIO_4ob-R-26" value="" style="verticalLabelPosition=bottom;shadow=0;dashed=0;align=center;html=1;verticalAlign=top;shape=mxgraph.electrical.logic_gates.logic_gate;operation=and;aspect=fixed;" vertex="1" parent="1">
          <mxGeometry x="794" y="530" width="66.67" height="40" as="geometry" />
        </mxCell>
        <mxCell id="CRj4OYLTbuhGIO_4ob-R-27" value="" style="verticalLabelPosition=bottom;shadow=0;dashed=0;align=center;html=1;verticalAlign=top;shape=mxgraph.electrical.logic_gates.logic_gate;operation=and;aspect=fixed;" vertex="1" parent="1">
          <mxGeometry x="794" y="590" width="66.67" height="40" as="geometry" />
        </mxCell>
        <mxCell id="CRj4OYLTbuhGIO_4ob-R-29" value="&lt;font style=&quot;font-size: 15px;&quot;&gt;in1&lt;br&gt;in2&lt;/font&gt;" style="text;html=1;align=center;verticalAlign=middle;whiteSpace=wrap;rounded=0;" vertex="1" parent="1">
          <mxGeometry x="527" y="495" width="60" height="30" as="geometry" />
        </mxCell>
        <mxCell id="CRj4OYLTbuhGIO_4ob-R-31" value="" style="endArrow=none;html=1;rounded=0;" edge="1" parent="1">
          <mxGeometry width="50" height="50" relative="1" as="geometry">
            <mxPoint x="929" y="490" as="sourcePoint" />
            <mxPoint x="961" y="490" as="targetPoint" />
          </mxGeometry>
        </mxCell>
        <mxCell id="CRj4OYLTbuhGIO_4ob-R-32" value="" style="endArrow=none;html=1;rounded=0;" edge="1" parent="1">
          <mxGeometry width="50" height="50" relative="1" as="geometry">
            <mxPoint x="927" y="501" as="sourcePoint" />
            <mxPoint x="959" y="501" as="targetPoint" />
          </mxGeometry>
        </mxCell>
        <mxCell id="CRj4OYLTbuhGIO_4ob-R-30" value="" style="verticalLabelPosition=bottom;shadow=0;dashed=0;align=center;html=1;verticalAlign=top;shape=mxgraph.electrical.logic_gates.logic_gate;operation=or;aspect=fixed;" vertex="1" parent="1">
          <mxGeometry x="920" y="471" width="81.67" height="49" as="geometry" />
        </mxCell>
        <mxCell id="CRj4OYLTbuhGIO_4ob-R-33" value="" style="endArrow=none;html=1;rounded=0;exitX=0;exitY=0.25;exitDx=0;exitDy=0;exitPerimeter=0;entryX=1;entryY=0.5;entryDx=0;entryDy=0;entryPerimeter=0;edgeStyle=elbowEdgeStyle;" edge="1" parent="1" source="CRj4OYLTbuhGIO_4ob-R-30" target="CRj4OYLTbuhGIO_4ob-R-8">
          <mxGeometry width="50" height="50" relative="1" as="geometry">
            <mxPoint x="960" y="460" as="sourcePoint" />
            <mxPoint x="1010" y="410" as="targetPoint" />
            <Array as="points">
              <mxPoint x="920" y="440" />
            </Array>
          </mxGeometry>
        </mxCell>
        <mxCell id="CRj4OYLTbuhGIO_4ob-R-34" value="" style="endArrow=none;html=1;rounded=0;exitX=1;exitY=0.5;exitDx=0;exitDy=0;exitPerimeter=0;edgeStyle=elbowEdgeStyle;" edge="1" parent="1" source="CRj4OYLTbuhGIO_4ob-R-25">
          <mxGeometry width="50" height="50" relative="1" as="geometry">
            <mxPoint x="960" y="460" as="sourcePoint" />
            <mxPoint x="930" y="490" as="targetPoint" />
            <Array as="points">
              <mxPoint x="900" y="480" />
            </Array>
          </mxGeometry>
        </mxCell>
        <mxCell id="CRj4OYLTbuhGIO_4ob-R-36" value="" style="endArrow=none;html=1;rounded=0;exitX=1;exitY=0.5;exitDx=0;exitDy=0;exitPerimeter=0;entryX=0;entryY=0.75;entryDx=0;entryDy=0;entryPerimeter=0;edgeStyle=elbowEdgeStyle;" edge="1" parent="1" source="CRj4OYLTbuhGIO_4ob-R-27" target="CRj4OYLTbuhGIO_4ob-R-30">
          <mxGeometry width="50" height="50" relative="1" as="geometry">
            <mxPoint x="940" y="560" as="sourcePoint" />
            <mxPoint x="990" y="510" as="targetPoint" />
            <Array as="points">
              <mxPoint x="920" y="560" />
            </Array>
          </mxGeometry>
        </mxCell>
        <mxCell id="CRj4OYLTbuhGIO_4ob-R-38" value="" style="endArrow=none;html=1;rounded=0;exitX=1;exitY=0.5;exitDx=0;exitDy=0;exitPerimeter=0;edgeStyle=elbowEdgeStyle;" edge="1" parent="1" source="CRj4OYLTbuhGIO_4ob-R-26">
          <mxGeometry width="50" height="50" relative="1" as="geometry">
            <mxPoint x="940" y="560" as="sourcePoint" />
            <mxPoint x="927" y="501" as="targetPoint" />
            <Array as="points">
              <mxPoint x="900" y="510" />
            </Array>
          </mxGeometry>
        </mxCell>
        <mxCell id="CRj4OYLTbuhGIO_4ob-R-39" value="&lt;font style=&quot;font-size: 15px;&quot;&gt;out&lt;/font&gt;" style="text;html=1;align=center;verticalAlign=middle;whiteSpace=wrap;rounded=0;" vertex="1" parent="1">
          <mxGeometry x="1002.67" y="489.5" width="20" height="10" as="geometry" />
        </mxCell>
        <mxCell id="CRj4OYLTbuhGIO_4ob-R-43" value="" style="group" vertex="1" connectable="0" parent="1">
          <mxGeometry x="590" y="480" width="20" height="34" as="geometry" />
        </mxCell>
        <mxCell id="CRj4OYLTbuhGIO_4ob-R-40" value="" style="endArrow=none;html=1;rounded=0;strokeWidth=3;" edge="1" parent="CRj4OYLTbuhGIO_4ob-R-43">
          <mxGeometry width="50" height="50" relative="1" as="geometry">
            <mxPoint y="34" as="sourcePoint" />
            <mxPoint x="20" y="14" as="targetPoint" />
          </mxGeometry>
        </mxCell>
        <mxCell id="CRj4OYLTbuhGIO_4ob-R-42" value="4" style="text;html=1;align=center;verticalAlign=middle;whiteSpace=wrap;rounded=0;" vertex="1" parent="CRj4OYLTbuhGIO_4ob-R-43">
          <mxGeometry x="8" height="10" as="geometry" />
        </mxCell>
        <mxCell id="CRj4OYLTbuhGIO_4ob-R-53" value="" style="endArrow=none;dashed=1;html=1;dashPattern=1 3;strokeWidth=2;rounded=0;fillColor=#f5f5f5;strokeColor=#666666;entryX=0.735;entryY=-0.113;entryDx=0;entryDy=0;entryPerimeter=0;" edge="1" parent="1" target="CRj4OYLTbuhGIO_4ob-R-9">
          <mxGeometry width="50" height="50" relative="1" as="geometry">
            <mxPoint x="886" y="640" as="sourcePoint" />
            <mxPoint x="886" y="330" as="targetPoint" />
          </mxGeometry>
        </mxCell>
        <mxCell id="CRj4OYLTbuhGIO_4ob-R-49" value="" style="endArrow=none;dashed=1;html=1;dashPattern=1 3;strokeWidth=2;rounded=0;fillColor=#f5f5f5;strokeColor=#666666;" edge="1" parent="1">
          <mxGeometry width="50" height="50" relative="1" as="geometry">
            <mxPoint x="765" y="640" as="sourcePoint" />
            <mxPoint x="765" y="350" as="targetPoint" />
          </mxGeometry>
        </mxCell>
      </root>
    </mxGraphModel>
  </diagram>
</mxfile>
